# xmcd
#
# Track frame offsets: 
#        150
#        19261
#        39366
#        58875
#        79210
#        99675
#        118207
#        137312
#        153415
#        171350
#        189310
#        206285
#        224480
#        244093
#        258327
#        273108
#        294176
#
# Disc length: 4127 seconds
#
# Revision: 0
# Processed by: cddbd v1.5.2PL0 Copyright (c) Steve Scherf et al.
# Submitted via: ExactAudioCopy v0.99pb5
#
DISCID=f0101d11
DTITLE=Acdc  - The Definitive Collection, Volume II The Best Of Brian 
DTITLE=[CD3]
DYEAR=1900
DGENRE=
TTITLE0=Ac\\Dc - Down On The Borderline
TTITLE1=Ac\\Dc - Back In Black (live)
TTITLE2=Ac\\Dc - Big Gun
TTITLE3=Ac\\Dc - Hard As A Rock
TTITLE4=Ac\\Dc - Cover You In Oil
TTITLE5=Ac\\Dc - Boogie Man
TTITLE6=Ac\\Dc - Caught With Your Pants Down
TTITLE7=Ac\\Dc - Stiff Upper Lip
TTITLE8=Ac\\Dc - Hold Me Back
TTITLE9=Ac\\Dc - Safe In New York City
TTITLE10=Ac\\Dc - Satellite Blues
TTITLE11=Ac\\Dc - Come And Get It
TTITLE12=Ac\\Dc - Rock N Roll Train
TTITLE13=Ac\\Dc - War Machine
TTITLE14=Ac\\Dc - Spoilin' For A Fight
TTITLE15=Ac\\Dc - Rock N Roll Dream
TTITLE16=Ac\\Dc - Black Ice
EXTD=
EXTT0=
EXTT1=
EXTT2=
EXTT3=
EXTT4=
EXTT5=
EXTT6=
EXTT7=
EXTT8=
EXTT9=
EXTT10=
EXTT11=
EXTT12=
EXTT13=
EXTT14=
EXTT15=
EXTT16=
PLAYORDER=
